<?xml version="1.0" encoding="utf-8"?>
<!-- Generator: Adobe Illustrator 27.7.0, SVG Export Plug-In . SVG Version: 6.00 Build 0)  -->
<svg version="1.1" id="Layer_1" xmlns="http://www.w3.org/2000/svg" xmlns:xlink="http://www.w3.org/1999/xlink" x="0px" y="0px"
	 viewBox="-193 377.199127 255.666672 47" style="enable-background:new -193 377.199127 255.666672 47;" xml:space="preserve">
<path d="M-155.937561,392.577515c1.2771,2.47168,2.002762,5.274506,2.002762,8.248474
	c0,2.913025-0.696274,5.661957-1.92485,8.096344h-7.401627c-0.148575,0-0.222839-0.07428-0.222839-0.222839
	c0-0.130005,0.018585-0.241394,0.074265-0.334259L-155.937561,392.577515z M-180.608322,408.922333
	c0.148575,0,0.222839-0.07428,0.222839-0.222839c0-0.130005-0.018585-0.241394-0.074265-0.334259l-7.47229-15.78772
	c-1.2771,2.47168-2.002762,5.274506-2.002762,8.248474c0,2.913025,0.696274,5.661957,1.92485,8.096344H-180.608322z
	 M-171.28331,413.824677c-0.167175,0-0.259979-0.055695-0.259979-0.185699c0-0.055664,0.018539-0.129944,0.074265-0.222809
	l9.656189-20.129395c0.074265-0.14859,0.111404-0.278595,0.111404-0.371399c0-0.129974-0.09285-0.185699-0.259979-0.185699
	h-8.096313c-0.352829,0-0.371414-0.018585-0.371414-0.371399v-4.159607c0-0.352814,0.018585-0.371368,0.371414-0.371368h10.566879
	c-3.232834-3.095673-7.614502-5.001312-12.443954-5.001312s-9.211121,1.90564-12.443954,5.001312h10.566879
	c0.352829,0,0.371414,0.018555,0.371414,0.371368v4.159607c0,0.352814-0.018585,0.371399-0.371414,0.371399h-8.096313
	c-0.16713,0-0.259979,0.055725-0.259979,0.185699c0,0.092804,0.03714,0.222809,0.111404,0.371399l9.656189,20.129395
	c0.055725,0.092865,0.074265,0.167145,0.074265,0.222809c0,0.130005-0.092804,0.185699-0.259979,0.185699h-11.792419
	c3.232834,3.095703,7.614502,5.001312,12.443909,5.001312s9.211075-1.905609,12.443909-5.001312H-171.28331z
	 M-143.266113,399.068176c-0.058594-0.09375-0.117188-0.140625-0.164062-0.140625s-0.105469,0.035156-0.1875,0.09375
	l-2.320312,1.78125c-0.082031,0.058594-0.117188,0.117188-0.117188,0.164062c0,0.058594,0.023438,0.128906,0.070312,0.1875
	c1.042969,1.594238,3.152344,2.883301,5.71875,2.883301c3.679688,0,5.671875-2.050781,5.671875-4.805176
	c0-2.671875-1.78125-3.925781-3.539062-4.804688c-1.21875-0.5625-2.308594-1.066406-3.011719-1.664062
	c-0.351562-0.292969-0.527344-0.667969-0.527344-1.125c0-0.902344,0.691406-1.570312,1.78125-1.570312
	c1.183594,0,1.839844,0.574219,2.273438,1.359375c0.058594,0.09375,0.117188,0.140625,0.164062,0.140625
	c0.035156,0,0.082031-0.035156,0.164062-0.117188l2.273438-1.734375c0.082031-0.082031,0.117188-0.140625,0.117188-0.1875
	c0-0.035156-0.023438-0.082031-0.070312-0.164062c-0.996094-1.488281-3.09375-2.34375-5.0625-2.34375
	c-3.128906,0-5.273438,2.003906-5.273438,4.59375c0,1.722656,0.773438,2.800781,1.804688,3.597656
	c0.515625,0.398438,1.078125,0.738281,1.6875,1.03125c1.757812,0.902344,3.492188,1.535156,3.492188,3.035156
	c0,0.503906-0.199219,0.902344-0.585938,1.21875s-0.878906,0.46875-1.453125,0.46875
	C-141.61377,400.966614-142.45752,400.322083-143.266113,399.068176z M-130.342773,403.498352
	c0,0.222656,0.011719,0.234375,0.234375,0.234375h9.67968c0.222656,0,0.234375-0.011719,0.234375-0.234375v-2.625488
	c0-0.222656-0.011719-0.234375-0.234375-0.234375h-6.257812c-0.222656,0-0.234375-0.011719-0.234375-0.234375v-2.414062
	c0-0.222656,0.011719-0.234375,0.234375-0.234375h5.90625c0.222656,0,0.234375-0.011719,0.234375-0.234375v-2.578125
	c0-0.222656-0.011719-0.234375-0.234375-0.234375h-5.90625c-0.222656,0-0.234375-0.011719-0.234375-0.234375v-3.820312
	c0-0.222656,0.011719-0.234375,0.234375-0.234375h6.140625c0.222656,0,0.234375-0.011719,0.234375-0.234375v-2.625
	c0-0.222656-0.011719-0.234375-0.234375-0.234375h-9.562492c-0.222656,0-0.234375,0.011719-0.234375,0.234375V403.498352z
	 M-116.927254,403.498352c-0.035156,0.058594-0.046875,0.105469-0.046875,0.140625c0,0.058594,0.058594,0.09375,0.1875,0.09375
	h3.1875c0.128906,0,0.222656-0.082031,0.28125-0.234375l0.773438-2.0625c0.058594-0.152344,0.164062-0.234863,0.304688-0.234863
	h4.664062c0.152344,0,0.222656,0.011719,0.28125,0.234863l0.796875,2.0625c0.058594,0.1875,0.117188,0.234375,0.304688,0.234375
	h3.257812c0.105469,0,0.164062-0.035156,0.164062-0.09375s-0.011719-0.105469-0.023438-0.140625l-6.84375-16.430176
	c-0.046875-0.09375-0.128906-0.140625-0.234375-0.140625c-0.128906,0-0.210938,0.046875-0.257812,0.140625L-116.927254,403.498352z
	 M-108.208504,398.411926c0.011719,0.035156,0.023438,0.070312,0.023438,0.117188s-0.058594,0.070312-0.1875,0.070312h-3.070312
	c-0.105469,0-0.164062-0.035156-0.164062-0.09375c0-0.046875,0.011719-0.082031,0.023438-0.117188l1.523438-4.242188
	c0.011719-0.046875,0.058594-0.070312,0.140625-0.070312c0.058594,0,0.105469,0.023438,0.140625,0.070312L-108.208504,398.411926z
	 M-87.878426,404.013977c0.058594,0.082031,0.128906,0.117188,0.210938,0.117188s0.117188-0.058594,0.117188-0.164062v-16.406738
	c0-0.222656-0.011719-0.234375-0.234375-0.234375h-2.882812c-0.222656,0-0.234375,0.011719-0.234375,0.234375v8.203125
	c0,0.09375-0.058594,0.140625-0.1875,0.140625c-0.058594,0-0.117188-0.023438-0.164062-0.070312l-7.640625-8.789062
	c-0.128906-0.128906-0.175781-0.117188-0.234375-0.117188c-0.082031,0-0.117188,0.058594-0.117188,0.164062v16.406738
	c0,0.222656,0.011719,0.234375,0.234375,0.234375h2.882812c0.222656,0,0.234375-0.011719,0.234375-0.234375v-8.180176
	c0-0.09375,0.058594-0.140625,0.1875-0.140625c0.058594,0,0.117188,0.023438,0.164062,0.070312L-87.878426,404.013977z
	 M-64.305183,387.560364c0.035156-0.058594,0.046875-0.105469,0.046875-0.140625c0-0.058594-0.058594-0.09375-0.164062-0.09375
	h-10.101562c-0.222656,0-0.234375,0.011719-0.234375,0.234375v2.625c0,0.222656,0.011719,0.234375,0.234375,0.234375h5.109375
	c0.105469,0,0.164062,0.035156,0.164062,0.117188c0,0.058594-0.023438,0.140625-0.070312,0.234375l-6.09375,12.703613
	c-0.035156,0.058594-0.046875,0.105469-0.046875,0.140625c0,0.082031,0.058594,0.117188,0.164062,0.117188h10.242188
	c0.222656,0,0.234375-0.011719,0.234375-0.234375v-2.625488c0-0.222656-0.011719-0.234375-0.234375-0.234375h-5.179688
	c-0.09375,0-0.140625-0.046875-0.140625-0.140625c0-0.082031,0.011719-0.152344,0.046875-0.210938L-64.305183,387.560364z
	 M-51.428719,397.779114c0,1.066406-0.246094,1.804688-0.738281,2.226562s-1.125,0.632812-1.886719,0.632812
	c-1.5,0-2.625-0.761719-2.625-2.859375v-10.21875c0-0.222656-0.011719-0.234375-0.234375-0.234375h-2.953125
	c-0.222656,0-0.234375,0.011719-0.234375,0.234375v11.109375c0,3.562988,2.835938,5.367676,6.046875,5.367676
	s6.046875-1.804688,6.046875-5.367676v-11.109375c0-0.222656-0.011719-0.234375-0.234375-0.234375h-2.953125
	c-0.222656,0-0.234375,0.011719-0.234375,0.234375V397.779114z M-42.864754,403.498352
	c0,0.222656,0.011719,0.234375,0.234375,0.234375h4.945312c3.65625,0,6.117188-1.253906,6.117188-4.711426
	c0-2.320312-1.40625-3.667969-2.671875-4.171875c-0.058594-0.035156-0.09375-0.070312-0.09375-0.117188
	s0.035156-0.09375,0.09375-0.140625c0.457031-0.269531,0.84375-0.644531,1.183594-1.148438s0.503906-1.136719,0.503906-1.921875
	c0-1.535156-0.609375-2.800781-1.921875-3.515625c-0.878906-0.503906-1.875-0.679688-3.75-0.679688h-4.40625
	c-0.222656,0-0.234375,0.011719-0.234375,0.234375V403.498352z M-39.513191,390.466614
	c0-0.222656,0.011719-0.234375,0.234375-0.234375h1.148438c1.347656,0,2.179688,0.550781,2.179688,1.828125
	c0,0.691406-0.199219,1.160156-0.609375,1.429688s-0.925781,0.398438-1.570312,0.398438h-1.148438
	c-0.222656,0-0.234375-0.011719-0.234375-0.234375V390.466614z M-39.278816,400.825989
	c-0.222656,0-0.234375-0.011719-0.234375-0.234375v-3.65625c0-0.222656,0.011719-0.234375,0.234375-0.234375h1.523438
	c0.902344,0,1.582031,0.140625,2.015625,0.433594s0.65625,0.832031,0.65625,1.628906c0,1.371094-0.914062,2.0625-2.320312,2.0625
	H-39.278816z M-23.776863,397.755676c0-0.152344-0.011719-0.234375,0.140625-0.234375c0.09375,0,0.175781,0.058594,0.257812,0.1875
	l4.335938,5.789551c0.152344,0.222656,0.175781,0.234375,0.398438,0.234375h3.632812
	c0.140625,0,0.210938-0.011719,0.210938-0.046875c0-0.011719-0.035156-0.082031-0.117188-0.1875
	c-1.59375-2.0625-3.140625-4.008301-4.734375-6.070801c-0.035156-0.035156-0.046875-0.058594-0.046875-0.09375
	c0-0.058594,0.035156-0.105469,0.09375-0.117188c1.066406-0.316406,1.910156-0.890625,2.542969-1.734375
	s0.949219-1.886719,0.949219-3.117188c0-1.03125-0.222656-1.898438-0.667969-2.589844s-1.007812-1.230469-1.675781-1.605469
	c-0.597656-0.339844-1.21875-0.574219-1.863281-0.679688s-1.464844-0.164062-2.449219-0.164062h-4.195312
	c-0.222656,0-0.234375,0.011719-0.234375,0.234375v15.937988c0,0.222656,0.035156,0.234375,0.257812,0.234375h2.929688
	c0.222656,0,0.234375-0.011719,0.234375-0.234375V397.755676z M-22.323738,390.279114c1.875,0,2.695312,0.878906,2.695312,2.320312
	c0,1.628906-0.9375,2.273438-2.625,2.273438h-1.289062c-0.222656,0-0.234375-0.011719-0.234375-0.234375v-4.125
	c0-0.222656,0.011719-0.234375,0.234375-0.234375H-22.323738z M-11.064949,403.498352
	c0,0.222656,0.011719,0.234375,0.234375,0.234375h2.953125c0.222656,0,0.234375-0.011719,0.234375-0.234375v-15.937988
	c0-0.222656-0.011719-0.234375-0.234375-0.234375h-2.953125c-0.222656,0-0.234375,0.011719-0.234375,0.234375V403.498352z
	 M5.280755,404.037415c1.5,0,3-0.398438,4.125-0.960938c0.128906-0.058594,0.1875-0.140625,0.1875-0.234375v-3.539551
	c0-0.105469-0.035156-0.164062-0.09375-0.164062c-0.046875,0-0.082031,0.011719-0.117188,0.046875
	c-0.902344,0.9375-2.378906,1.453125-3.9375,1.453125c-3.316406,0-5.085938-2.355469-5.085938-5.109375
	s1.757812-5.109375,5.109375-5.109375c1.558594,0,3.011718,0.515625,3.914062,1.453125
	c0.035156,0.035156,0.070312,0.046875,0.117188,0.046875c0.058594,0,0.09375-0.058594,0.09375-0.164062v-3.539062
	c0-0.09375-0.058594-0.175781-0.1875-0.234375c-1.125-0.5625-2.625-0.960938-4.125-0.960938
	c-5.261719,0.011719-8.519531,3.9375-8.507812,8.507812C-3.227058,400.216614,0.054192,404.037415,5.280755,404.037415z
	 M17.828606,396.396301c0-0.105469,0.058594-0.164062,0.1875-0.164062c0.082031,0,0.140625,0.035156,0.1875,0.09375
	l4.664062,7.172363c0.1875,0.222656,0.152344,0.234375,0.375,0.234375h3.5625c0.140625,0,0.210938-0.011719,0.210938-0.046875
	c0-0.011719-0.035156-0.082031-0.117188-0.1875l-5.53125-8.437988c-0.035156-0.035156-0.046875-0.070312-0.046875-0.117188
	s0.011719-0.082031,0.046875-0.117188l5.085938-7.265625c0.058594-0.09375,0.09375-0.152344,0.09375-0.164062
	c0-0.046875-0.058594-0.070312-0.1875-0.070312h-3.539062c-0.222656,0-0.222656,0.046875-0.375,0.234375l-4.265625,6.304688
	c-0.046875,0.082031-0.117188,0.117188-0.210938,0.117188s-0.140625-0.058594-0.140625-0.164062v-6.257812
	c0-0.222656-0.011719-0.234375-0.234375-0.234375h-2.90625c-0.222656,0-0.234375,0.011719-0.234375,0.234375v15.937988
	c0,0.222656,0.011719,0.234375,0.234375,0.234375h2.90625c0.222656,0,0.234375-0.011719,0.234375-0.234375V396.396301z
	 M29.627434,403.498352c-0.035156,0.058594-0.046875,0.105469-0.046875,0.140625c0,0.058594,0.058594,0.09375,0.1875,0.09375h3.1875
	c0.128906,0,0.222656-0.082031,0.28125-0.234375l0.773438-2.0625c0.058594-0.152344,0.164062-0.234863,0.304688-0.234863h4.664062
	c0.152344,0,0.222656,0.011719,0.28125,0.234863l0.796875,2.0625c0.058594,0.1875,0.117188,0.234375,0.304688,0.234375h3.257812
	c0.105469,0,0.164062-0.035156,0.164062-0.09375s-0.011719-0.105469-0.023438-0.140625l-6.84375-16.430176
	c-0.046875-0.09375-0.128906-0.140625-0.234375-0.140625c-0.128906,0-0.210938,0.046875-0.257812,0.140625L29.627434,403.498352z
	 M38.346184,398.411926c0.011719,0.035156,0.023438,0.070312,0.023438,0.117188s-0.058594,0.070312-0.1875,0.070312h-3.070312
	c-0.105469,0-0.164062-0.035156-0.164062-0.09375c0-0.046875,0.011719-0.082031,0.023438-0.117188l1.523438-4.242188
	c0.011719-0.046875,0.058594-0.070312,0.140625-0.070312c0.058594,0,0.105469,0.023438,0.140625,0.070312L38.346184,398.411926z
	 M49.277824,399.068176c-0.058594-0.09375-0.117188-0.140625-0.164062-0.140625s-0.105469,0.035156-0.1875,0.09375
	l-2.320312,1.78125c-0.082031,0.058594-0.117188,0.117188-0.117188,0.164062c0,0.058594,0.023438,0.128906,0.070312,0.1875
	c1.042969,1.594238,3.152344,2.883301,5.71875,2.883301c3.679688,0,5.671875-2.050781,5.671875-4.805176
	c0-2.671875-1.78125-3.925781-3.539062-4.804688c-1.21875-0.5625-2.308594-1.066406-3.011719-1.664062
	c-0.351562-0.292969-0.527344-0.667969-0.527344-1.125c0-0.902344,0.691406-1.570312,1.78125-1.570312
	c1.183594,0,1.839844,0.574219,2.273438,1.359375c0.058594,0.09375,0.117188,0.140625,0.164062,0.140625
	c0.035156,0,0.082031-0.035156,0.164062-0.117188l2.273438-1.734375c0.082031-0.082031,0.117188-0.140625,0.117188-0.1875
	c0-0.035156-0.023438-0.082031-0.070312-0.164062c-0.996094-1.488281-3.09375-2.34375-5.0625-2.34375
	c-3.128906,0-5.273438,2.003906-5.273438,4.59375c0,1.722656,0.773438,2.800781,1.804688,3.597656
	c0.515625,0.398438,1.078125,0.738281,1.6875,1.03125c1.757812,0.902344,3.492188,1.535156,3.492188,3.035156
	c0,0.503906-0.199219,0.902344-0.585938,1.21875s-0.878906,0.46875-1.453125,0.46875
	C50.930168,400.966614,50.086418,400.322083,49.277824,399.068176z M-145.888184,409.686829
	c-0.083496,0-0.087891,0.003906-0.087891,0.087891v5.976562c0,0.083008,0.004395,0.087891,0.087891,0.087891h1.353516
	c0.470215,0,0.971191-0.075195,1.335938-0.228516c1.116211-0.46582,1.705078-1.578125,1.705078-2.847656
	c0-0.580078-0.109863-1.103516-0.325195-1.569336s-0.540527-0.830078-0.966797-1.09375
	c-0.408691-0.259766-0.918457-0.413086-1.669922-0.413086H-145.888184z M-142.45166,412.763
	c0,0.84375-0.28125,1.55957-0.84375,1.959961c-0.294434,0.210938-0.738281,0.316406-1.230469,0.316406h-0.500977
	c-0.083496,0-0.087891-0.004883-0.087891-0.087891v-4.376953c0-0.083984,0.004395-0.087891,0.087891-0.087891h0.492188
	c0.492188,0,0.97998,0.105469,1.274414,0.316406C-142.697754,411.202454-142.45166,411.91925-142.45166,412.763z
	 M-139.942871,415.751282c0,0.083008,0.004395,0.087891,0.087891,0.087891h3.322266c0.083496,0,0.087891-0.004883,0.087891-0.087891
	v-0.632812c0-0.083984-0.004395-0.087891-0.087891-0.087891h-2.460938c-0.083496,0-0.087891-0.004883-0.087891-0.087891v-1.212891
	c0-0.083984,0.004395-0.087891,0.087891-0.087891h2.329102c0.083496,0,0.087891-0.004883,0.087891-0.087891v-0.624023
	c0-0.083984-0.004395-0.087891-0.087891-0.087891h-2.329102c-0.083496,0-0.087891-0.004883-0.087891-0.087891v-2.170898
	c0-0.083984,0.004395-0.087891,0.087891-0.087891h2.416992c0.083496,0,0.087891-0.004883,0.087891-0.087891v-0.632812
	c0-0.083984-0.004395-0.087891-0.087891-0.087891h-3.27832c-0.083496,0-0.087891,0.003906-0.087891,0.087891V415.751282z
	 M-133.373535,415.927063c1.195312,0,1.889648-0.699219,1.889648-1.722656c0-0.949219-0.650391-1.419922-1.30957-1.801758
	c-0.65918-0.382812-1.30957-0.655273-1.30957-1.22168c0-0.444336,0.263672-0.773438,0.791016-0.773438
	c0.457031,0,0.777832,0.179688,0.975586,0.509766c0.021973,0.035156,0.043945,0.052734,0.061523,0.052734
	c0.013184,0,0.030762-0.013672,0.061523-0.043945l0.430664-0.430664c0.030762-0.03125,0.043945-0.052734,0.043945-0.070312
	c0-0.013672-0.008789-0.03125-0.026367-0.061523c-0.373535-0.527344-0.883301-0.764648-1.564453-0.764648
	c-1.010742,0-1.6875,0.707031-1.6875,1.582031c0,0.896484,0.650391,1.339844,1.305176,1.722656
	c0.452637,0.246094,0.852539,0.487305,1.111816,0.791016c0.127441,0.15332,0.193359,0.337891,0.193359,0.553711
	c0,0.228516-0.079102,0.425781-0.241699,0.597656c-0.162598,0.170898-0.391113,0.254883-0.689941,0.254883
	c-0.246094,0-0.470215-0.057617-0.667969-0.171875s-0.391113-0.325195-0.580078-0.636719
	c-0.030762-0.035156-0.04834-0.052734-0.061523-0.052734s-0.030762,0.012695-0.061523,0.043945l-0.483398,0.483398
	c-0.030762,0.030273-0.043945,0.052734-0.043945,0.070312s0.008789,0.039062,0.026367,0.061523
	C-134.858887,415.531555-134.098633,415.927063-133.373535,415.927063z M-130.029785,415.751282
	c0,0.083008,0.004395,0.087891,0.087891,0.087891h0.685547c0.083496,0,0.087891-0.004883,0.087891-0.087891v-5.976562
	c0-0.083984-0.004395-0.087891-0.087891-0.087891h-0.685547c-0.083496,0-0.087891,0.003906-0.087891,0.087891V415.751282z
	 M-124.471199,410.451477c0.575684,0,1.059082,0.206055,1.423828,0.571289c0.013184,0.012695,0.026367,0.017578,0.043945,0.017578
	c0.021973,0,0.035156-0.022461,0.035156-0.061523v-0.94043c0-0.03125-0.021973-0.057617-0.070312-0.087891
	c-0.421875-0.233398-0.870117-0.351562-1.432617-0.351562c-1.959961,0-3.164062,1.445312-3.164062,3.164062
	c0,1.722656,1.208496,3.164062,3.199219,3.164062c0.597656,0,1.305176-0.110352,1.705078-0.439453
	c0.035156-0.022461,0.052734-0.057617,0.052734-0.09668v-2.750977c0-0.083984-0.004395-0.087891-0.087891-0.087891h-1.995117
	c-0.083496,0-0.087891,0.003906-0.087891,0.087891v0.606445c0,0.083008,0.004395,0.087891,0.087891,0.087891h1.151367
	c0.083496,0,0.087891,0.003906,0.087891,0.087891v1.485352c0,0.030273-0.013184,0.047852-0.043945,0.061523
	c-0.224121,0.105469-0.566895,0.140625-0.870117,0.140625c-1.498535,0-2.25-1.103516-2.25-2.34668
	C-126.686043,411.532532-125.956551,410.451477-124.471199,410.451477z M-117.18116,415.927063
	c0.030762,0.030273,0.04834,0.043945,0.061523,0.043945c0.017578,0,0.026367-0.022461,0.026367-0.061523v-6.134766
	c0-0.083984-0.004395-0.087891-0.087891-0.087891h-0.650391c-0.083496,0-0.087891,0.003906-0.087891,0.087891v3.691406
	c0,0.035156-0.021973,0.052734-0.070312,0.052734c-0.021973,0-0.043945-0.008789-0.061523-0.026367l-2.961914-3.893555
	c-0.021973-0.03125-0.043945-0.043945-0.061523-0.043945s-0.026367,0.021484-0.026367,0.061523v6.134766
	c0,0.083008,0.004395,0.087891,0.087891,0.087891h0.650391c0.083496,0,0.087891-0.004883,0.087891-0.087891v-3.691406
	c0-0.035156,0.021973-0.052734,0.070312-0.052734c0.021973,0,0.043945,0.008789,0.061523,0.026367L-117.18116,415.927063z
	 M-115.322762,415.751282c0,0.083008,0.004395,0.087891,0.087891,0.087891h3.322266c0.083496,0,0.087891-0.004883,0.087891-0.087891
	v-0.632812c0-0.083984-0.004395-0.087891-0.087891-0.087891h-2.460938c-0.083496,0-0.087891-0.004883-0.087891-0.087891v-1.212891
	c0-0.083984,0.004395-0.087891,0.087891-0.087891h2.329102c0.083496,0,0.087891-0.004883,0.087891-0.087891v-0.624023
	c0-0.083984-0.004395-0.087891-0.087891-0.087891h-2.329102c-0.083496,0-0.087891-0.004883-0.087891-0.087891v-2.170898
	c0-0.083984,0.004395-0.087891,0.087891-0.087891h2.416992c0.083496,0,0.087891-0.004883,0.087891-0.087891v-0.632812
	c0-0.083984-0.004395-0.087891-0.087891-0.087891h-3.27832c-0.083496,0-0.087891,0.003906-0.087891,0.087891V415.751282z
	 M-109.439461,413.211243c0-0.052734,0.013184-0.079102,0.035156-0.079102c0.017578,0,0.039551,0.017578,0.070312,0.052734
	l1.959961,2.566406c0.070312,0.083008,0.057129,0.087891,0.140625,0.087891h0.878906
	c0.052734,0,0.079102-0.004883,0.079102-0.017578c0,0-0.013184-0.022461-0.043945-0.070312l-1.907227-2.469727
	c-0.013184-0.013672-0.017578-0.022461-0.017578-0.035156c0-0.017578,0.013184-0.03125,0.035156-0.035156
	c0.949219-0.189453,1.485352-0.822266,1.485352-1.713867c0-0.5625-0.162598-1.050781-0.5625-1.379883
	c-0.347168-0.286133-0.852539-0.430664-1.520508-0.430664h-1.397461c-0.083496,0-0.087891,0.003906-0.087891,0.087891v5.976562
	c0,0.083008,0.021973,0.087891,0.105469,0.087891h0.65918c0.083496,0,0.087891-0.004883,0.087891-0.087891V413.211243z
	 M-109.35157,412.552063c-0.083496,0-0.087891-0.004883-0.087891-0.087891v-1.916016
	c0-0.083984,0.004395-0.087891,0.087891-0.087891h0.588867c0.703125,0,1.142578,0.333984,1.142578,1.037109
	c0,0.667969-0.333984,1.054688-1.107422,1.054688H-109.35157z M-98.251961,414.608704
	c0.210938-0.37793,0.41748-1.015625,0.439453-1.476562c0-0.048828-0.026367-0.070312-0.079102-0.070312h-0.641602
	c-0.04834,0-0.070312,0.021484-0.070312,0.070312c-0.013184,0.126953-0.030762,0.28125-0.061523,0.452148
	c-0.030762,0.171875-0.065918,0.316406-0.114258,0.426758c-0.004395,0.021484-0.021973,0.035156-0.043945,0.035156
	c-0.017578,0-0.035156-0.013672-0.052734-0.035156l-1.168945-1.494141c-0.017578-0.022461-0.026367-0.048828-0.026367-0.070312
	c0-0.035156,0.013184-0.057617,0.035156-0.061523c0.51416-0.400391,0.94043-0.795898,0.94043-1.520508
	c0-0.804688-0.663574-1.265625-1.388672-1.265625c-0.703125,0-1.371094,0.460938-1.371094,1.265625
	c0,0.46582,0.369141,1.014648,0.632812,1.327148c0.013184,0.012695,0.017578,0.026367,0.017578,0.043945
	c0,0.030273-0.013184,0.047852-0.035156,0.052734c-0.606445,0.416992-1.177734,0.865234-1.177734,1.810547
	c0,1.251953,0.975586,1.828125,2.003906,1.828125c0.303223,0,0.597656-0.052734,0.878906-0.158203
	s0.51416-0.263672,0.703125-0.474609c0.017578-0.017578,0.030762-0.026367,0.043945-0.026367
	c0.004395,0,0.013184,0.008789,0.026367,0.026367l0.369141,0.483398c0.035156,0.039062,0.074707,0.061523,0.114258,0.061523h0.74707
	c0.052734,0,0.079102-0.013672,0.079102-0.035156c0,0-0.004395-0.017578-0.017578-0.052734
	c-0.013184-0.013672-0.004395-0.013672-0.017578-0.026367l-0.755859-0.984375
	c-0.021973-0.03125-0.035156-0.052734-0.035156-0.070312C-98.278328,414.656555-98.269539,414.638977-98.251961,414.608704z
	 M-99.306648,414.617493c0.017578,0.030273,0.026367,0.052734,0.026367,0.070312c0,0.021484-0.008789,0.043945-0.026367,0.061523
	c-0.175781,0.188477-0.347168,0.311523-0.51416,0.37793c-0.166992,0.06543-0.37793,0.09668-0.628418,0.09668
	c-0.500977,0-1.151367-0.3125-1.151367-1.133789c0-0.588867,0.37793-0.883789,0.791016-1.204102
	c0.021973-0.013672,0.039551-0.026367,0.061523-0.026367c0.017578,0,0.035156,0.012695,0.052734,0.035156L-99.306648,414.617493z
	 M-101.099617,410.864563c0-0.365234,0.241699-0.615234,0.615234-0.615234s0.632812,0.25,0.632812,0.615234
	c0,0.421875-0.14502,0.566406-0.615234,0.94043c-0.030762,0.021484-0.052734,0.035156-0.070312,0.035156
	c-0.021973,0-0.04834-0.013672-0.070312-0.035156C-100.787605,411.576477-101.099617,411.193665-101.099617,410.864563z
	 M-93.304695,415.751282c0,0.083008,0.004395,0.087891,0.087891,0.087891h0.685547c0.083496,0,0.087891-0.004883,0.087891-0.087891
	v-2.021484c0-0.083984,0.004395-0.087891,0.087891-0.087891h2.241211c0.083496,0,0.087891-0.004883,0.087891-0.087891v-0.624023
	c0-0.083984-0.004395-0.087891-0.087891-0.087891h-2.241211c-0.083496,0-0.087891-0.004883-0.087891-0.087891v-2.170898
	c0-0.083984,0.004395-0.087891,0.087891-0.087891h2.311523c0.083496,0,0.087891-0.004883,0.087891-0.087891v-0.632812
	c0-0.083984-0.004395-0.087891-0.087891-0.087891h-3.172852c-0.083496,0-0.087891,0.003906-0.087891,0.087891V415.751282z
	 M-87.614265,413.211243c0-0.052734,0.013184-0.079102,0.035156-0.079102c0.017578,0,0.039551,0.017578,0.070312,0.052734
	l1.959961,2.566406c0.070312,0.083008,0.057129,0.087891,0.140625,0.087891h0.878906
	c0.052734,0,0.079102-0.004883,0.079102-0.017578c0,0-0.013184-0.022461-0.043945-0.070312l-1.907227-2.469727
	c-0.013184-0.013672-0.017578-0.022461-0.017578-0.035156c0-0.017578,0.013184-0.03125,0.035156-0.035156
	c0.949219-0.189453,1.485352-0.822266,1.485352-1.713867c0-0.5625-0.162598-1.050781-0.5625-1.379883
	c-0.347168-0.286133-0.852539-0.430664-1.520508-0.430664h-1.397461c-0.083496,0-0.087891,0.003906-0.087891,0.087891v5.976562
	c0,0.083008,0.021973,0.087891,0.105469,0.087891h0.65918c0.083496,0,0.087891-0.004883,0.087891-0.087891V413.211243z
	 M-87.526375,412.552063c-0.083496,0-0.087891-0.004883-0.087891-0.087891v-1.916016
	c0-0.083984,0.004395-0.087891,0.087891-0.087891h0.588867c0.703125,0,1.142578,0.333984,1.142578,1.037109
	c0,0.667969-0.333984,1.054688-1.107422,1.054688H-87.526375z M-77.406258,412.763
	c0.008789-1.713867-1.362305-3.172852-3.076172-3.164062c-1.722656-0.008789-3.076172,1.450195-3.076172,3.164062
	c0,1.722656,1.353516,3.164062,3.076172,3.164062C-78.768562,415.930969-77.397469,414.485657-77.406258,412.763z
	 M-82.609383,412.763c0-1.25293,0.883301-2.311523,2.126953-2.311523s2.126953,1.058594,2.126953,2.311523
	c0,1.251953-0.883301,2.311523-2.126953,2.311523S-82.609383,414.014954-82.609383,412.763z M-71.988289,415.927063
	c0.030762,0.030273,0.04834,0.043945,0.061523,0.043945c0.017578,0,0.026367-0.022461,0.026367-0.061523v-6.134766
	c0-0.083984-0.004395-0.087891-0.087891-0.087891h-0.650391c-0.083496,0-0.087891,0.003906-0.087891,0.087891v3.691406
	c0,0.035156-0.021973,0.052734-0.070312,0.052734c-0.021973,0-0.043945-0.008789-0.061523-0.026367l-2.961914-3.893555
	c-0.021973-0.03125-0.043945-0.043945-0.061523-0.043945s-0.026367,0.021484-0.026367,0.061523v6.134766
	c0,0.083008,0.004395,0.087891,0.087891,0.087891h0.650391c0.083496,0,0.087891-0.004883,0.087891-0.087891v-3.691406
	c0-0.035156,0.021973-0.052734,0.070312-0.052734c0.021973,0,0.043945,0.008789,0.061523,0.026367L-71.988289,415.927063z
	 M-70.542976,410.407532c0,0.083008,0.004395,0.087891,0.087891,0.087891h1.195312c0.083496,0,0.087891,0.003906,0.087891,0.087891
	v5.167969c0,0.083008,0.004395,0.087891,0.087891,0.087891h0.685547c0.083496,0,0.087891-0.004883,0.087891-0.087891v-5.167969
	c0-0.083984,0.004395-0.087891,0.087891-0.087891h1.195312c0.083496,0,0.087891-0.004883,0.087891-0.087891v-0.632812
	c0-0.083984-0.004395-0.087891-0.087891-0.087891h-3.427734c-0.083496,0-0.087891,0.003906-0.087891,0.087891V410.407532z
	 M-63.407234,415.751282c0,0.083008,0.004395,0.087891,0.087891,0.087891h3.322266c0.083496,0,0.087891-0.004883,0.087891-0.087891
	v-0.632812c0-0.083984-0.004395-0.087891-0.087891-0.087891h-2.460938c-0.083496,0-0.087891-0.004883-0.087891-0.087891v-1.212891
	c0-0.083984,0.004395-0.087891,0.087891-0.087891h2.329102c0.083496,0,0.087891-0.004883,0.087891-0.087891v-0.624023
	c0-0.083984-0.004395-0.087891-0.087891-0.087891h-2.329102c-0.083496,0-0.087891-0.004883-0.087891-0.087891v-2.170898
	c0-0.083984,0.004395-0.087891,0.087891-0.087891h2.416992c0.083496,0,0.087891-0.004883,0.087891-0.087891v-0.632812
	c0-0.083984-0.004395-0.087891-0.087891-0.087891h-3.27832c-0.083496,0-0.087891,0.003906-0.087891,0.087891V415.751282z
	 M-54.500008,415.927063c0.030762,0.030273,0.04834,0.043945,0.061523,0.043945c0.017578,0,0.026367-0.022461,0.026367-0.061523
	v-6.134766c0-0.083984-0.004395-0.087891-0.087891-0.087891h-0.650391c-0.083496,0-0.087891,0.003906-0.087891,0.087891v3.691406
	c0,0.035156-0.021973,0.052734-0.070312,0.052734c-0.021973,0-0.043945-0.008789-0.061523-0.026367l-2.961914-3.893555
	c-0.021973-0.03125-0.043945-0.043945-0.061523-0.043945s-0.026367,0.021484-0.026367,0.061523v6.134766
	c0,0.083008,0.004395,0.087891,0.087891,0.087891h0.650391c0.083496,0,0.087891-0.004883,0.087891-0.087891v-3.691406
	c0-0.035156,0.021973-0.052734,0.070312-0.052734c0.021973,0,0.043945,0.008789,0.061523,0.026367L-54.500008,415.927063z
	 M-52.554207,409.686829c-0.083496,0-0.087891,0.003906-0.087891,0.087891v5.976562c0,0.083008,0.004395,0.087891,0.087891,0.087891
	h1.353516c0.470215,0,0.971191-0.075195,1.335938-0.228516c1.116211-0.46582,1.705078-1.578125,1.705078-2.847656
	c0-0.580078-0.109863-1.103516-0.325195-1.569336s-0.540527-0.830078-0.966797-1.09375
	c-0.408691-0.259766-0.918457-0.413086-1.669922-0.413086H-52.554207z M-49.117683,412.763
	c0,0.84375-0.28125,1.55957-0.84375,1.959961c-0.294434,0.210938-0.738281,0.316406-1.230469,0.316406h-0.500977
	c-0.083496,0-0.087891-0.004883-0.087891-0.087891v-4.376953c0-0.083984,0.004395-0.087891,0.087891-0.087891h0.492188
	c0.492188,0,0.97998,0.105469,1.274414,0.316406C-49.363777,411.202454-49.117683,411.91925-49.117683,412.763z
	 M-39.705574,415.935852c0.004883,0.021484,0.022461,0.035156,0.043945,0.035156c0.022461,0,0.040039-0.013672,0.043945-0.035156
	l2.091797-6.161133c0.013672-0.035156,0.017578-0.057617,0.017578-0.061523c0-0.017578-0.017578-0.026367-0.052734-0.026367
	h-0.791016c-0.047852,0-0.083008,0.030273-0.105469,0.087891l-1.125,3.65625
	c-0.012695,0.017578-0.026367,0.026367-0.043945,0.026367c-0.021484,0-0.039062-0.008789-0.043945-0.026367l-1.265625-3.788086
	c-0.021484-0.057617-0.056641-0.087891-0.105469-0.087891c-0.047852,0-0.083008,0.030273-0.105469,0.087891l-1.256836,3.788086
	c-0.013184,0.017578-0.026367,0.026367-0.043945,0.026367c-0.021973,0-0.039551-0.008789-0.043945-0.026367l-1.107422-3.65625
	c-0.021973-0.057617-0.057129-0.087891-0.105469-0.087891h-0.826172c-0.035156,0-0.052734,0.008789-0.052734,0.026367
	c0,0.003906,0.004395,0.026367,0.017578,0.061523l2.047852,6.161133c0.004395,0.021484,0.021973,0.035156,0.043945,0.035156
	s0.039551-0.013672,0.043945-0.035156l1.318359-3.902344c0.004883-0.017578,0.022461-0.026367,0.043945-0.026367
	c0.017578,0,0.03125,0.008789,0.043945,0.026367L-39.705574,415.935852z M-36.247566,415.751282
	c0,0.083008,0.004883,0.087891,0.087891,0.087891h3.322266c0.083984,0,0.087891-0.004883,0.087891-0.087891v-0.632812
	c0-0.083984-0.003906-0.087891-0.087891-0.087891h-2.460938c-0.083008,0-0.087891-0.004883-0.087891-0.087891v-1.212891
	c0-0.083984,0.004883-0.087891,0.087891-0.087891h2.329102c0.083984,0,0.087891-0.004883,0.087891-0.087891v-0.624023
	c0-0.083984-0.003906-0.087891-0.087891-0.087891h-2.329102c-0.083008,0-0.087891-0.004883-0.087891-0.087891v-2.170898
	c0-0.083984,0.004883-0.087891,0.087891-0.087891h2.416992c0.083984,0,0.087891-0.004883,0.087891-0.087891v-0.632812
	c0-0.083984-0.003906-0.087891-0.087891-0.087891h-3.27832c-0.083008,0-0.087891,0.003906-0.087891,0.087891V415.751282z
	 M-31.207527,415.751282c0,0.083008,0.004883,0.087891,0.087891,0.087891h1.555664c1.195312,0,2.003906-0.672852,2.003906-1.766602
	c0-0.875-0.513672-1.332031-0.984375-1.520508c-0.021484-0.004883-0.035156-0.022461-0.035156-0.043945
	c0-0.017578,0.013672-0.035156,0.035156-0.052734c0.158203-0.092773,0.307617-0.233398,0.444336-0.417969
	c0.135742-0.18457,0.206055-0.439453,0.206055-0.759766c0-0.479492-0.15332-0.866211-0.460938-1.15625
	s-0.755859-0.43457-1.34082-0.43457h-1.423828c-0.083008,0-0.087891,0.003906-0.087891,0.087891V415.751282z M-30.363777,410.548157
	c0-0.083984,0.004883-0.087891,0.087891-0.087891h0.580078c0.5625,0,0.922852,0.316406,0.922852,0.878906
	c0,0.298828-0.087891,0.527344-0.263672,0.680664c-0.175781,0.154297-0.395508,0.233398-0.65918,0.233398h-0.580078
	c-0.083008,0-0.087891-0.004883-0.087891-0.087891V410.548157z M-30.275887,415.065735
	c-0.083008,0-0.087891-0.004883-0.087891-0.087891v-1.863281c0-0.083984,0.004883-0.087891,0.087891-0.087891h0.791016
	c0.303711,0,0.544922,0.091797,0.725586,0.272461c0.179688,0.179688,0.267578,0.425781,0.267578,0.729492
	c0,0.302734-0.083008,0.553711-0.246094,0.74707c-0.162109,0.193359-0.399414,0.290039-0.703125,0.290039H-30.275887z
	 M-23.236824,409.686829c-0.083008,0-0.087891,0.003906-0.087891,0.087891v5.976562c0,0.083008,0.004883,0.087891,0.087891,0.087891
	h1.353516c0.470703,0,0.97168-0.075195,1.335938-0.228516c1.116211-0.46582,1.705078-1.578125,1.705078-2.847656
	c0-0.580078-0.109375-1.103516-0.325195-1.569336c-0.214844-0.46582-0.540039-0.830078-0.966797-1.09375
	c-0.408203-0.259766-0.917969-0.413086-1.669922-0.413086H-23.236824z M-19.800301,412.763
	c0,0.84375-0.28125,1.55957-0.84375,1.959961c-0.293945,0.210938-0.738281,0.316406-1.230469,0.316406h-0.500977
	c-0.083008,0-0.087891-0.004883-0.087891-0.087891v-4.376953c0-0.083984,0.004883-0.087891,0.087891-0.087891h0.492188
	c0.492188,0,0.980469,0.105469,1.274414,0.316406C-20.046394,411.202454-19.800301,411.91925-19.800301,412.763z
	 M-17.291512,415.751282c0,0.083008,0.004883,0.087891,0.087891,0.087891h3.322266c0.083984,0,0.087891-0.004883,0.087891-0.087891
	v-0.632812c0-0.083984-0.003906-0.087891-0.087891-0.087891h-2.460938c-0.083008,0-0.087891-0.004883-0.087891-0.087891v-1.212891
	c0-0.083984,0.004883-0.087891,0.087891-0.087891h2.329102c0.083984,0,0.087891-0.004883,0.087891-0.087891v-0.624023
	c0-0.083984-0.003906-0.087891-0.087891-0.087891h-2.329102c-0.083008,0-0.087891-0.004883-0.087891-0.087891v-2.170898
	c0-0.083984,0.004883-0.087891,0.087891-0.087891h2.416992c0.083984,0,0.087891-0.004883,0.087891-0.087891v-0.632812
	c0-0.083984-0.003906-0.087891-0.087891-0.087891h-3.27832c-0.083008,0-0.087891,0.003906-0.087891,0.087891V415.751282z
	 M-11.847176,409.774719c-0.021484-0.057617-0.056641-0.087891-0.105469-0.087891h-0.808594
	c-0.035156,0-0.052734,0.008789-0.052734,0.026367c0,0.003906,0.004883,0.026367,0.017578,0.061523l2.241211,6.161133
	c0.004883,0.021484,0.022461,0.035156,0.043945,0.035156c0.022461,0,0.040039-0.013672,0.043945-0.035156l2.241211-6.161133
	c0.013672-0.035156,0.017578-0.057617,0.017578-0.061523c0-0.017578-0.017578-0.026367-0.052734-0.026367h-0.791016
	c-0.047852,0-0.083008,0.030273-0.105469,0.087891l-1.300781,3.691406c-0.012695,0.017578-0.030273,0.026367-0.052734,0.026367
	c-0.030273,0-0.047852-0.008789-0.052734-0.026367L-11.847176,409.774719z M-6.965339,415.751282
	c0,0.083008,0.004883,0.087891,0.087891,0.087891h3.322266c0.083984,0,0.087891-0.004883,0.087891-0.087891v-0.632812
	c0-0.083984-0.003906-0.087891-0.087891-0.087891H-6.01612c-0.083008,0-0.087891-0.004883-0.087891-0.087891v-1.212891
	c0-0.083984,0.004883-0.087891,0.087891-0.087891h2.329102c0.083984,0,0.087891-0.004883,0.087891-0.087891v-0.624023
	c0-0.083984-0.003906-0.087891-0.087891-0.087891H-6.01612c-0.083008,0-0.087891-0.004883-0.087891-0.087891v-2.170898
	c0-0.083984,0.004883-0.087891,0.087891-0.087891h2.416992c0.083984,0,0.087891-0.004883,0.087891-0.087891v-0.632812
	c0-0.083984-0.003906-0.087891-0.087891-0.087891h-3.27832c-0.083008,0-0.087891,0.003906-0.087891,0.087891V415.751282z
	 M-1.9253,415.751282c0,0.083008,0.004883,0.087891,0.087891,0.087891h2.882812c0.083984,0,0.087891-0.004883,0.087891-0.087891
	v-0.632812c0-0.083984-0.003906-0.087891-0.087891-0.087891h-2.039062c-0.083008,0-0.087891-0.004883-0.087891-0.087891v-5.167969
	c0-0.083984-0.003906-0.087891-0.087891-0.087891h-0.667969c-0.083008,0-0.087891,0.003906-0.087891,0.087891V415.751282z
	 M8.089348,412.763c0.008789-1.713867-1.362304-3.172852-3.076171-3.164062c-1.722656-0.008789-3.076172,1.450195-3.076172,3.164062
	c0,1.722656,1.353516,3.164062,3.076172,3.164062C6.727044,415.930969,8.098137,414.485657,8.089348,412.763z M2.886223,412.763
	c0-1.25293,0.883789-2.311523,2.126953-2.311523c1.244141,0,2.126953,1.058594,2.126953,2.311523
	c0,1.251953-0.882812,2.311523-2.126953,2.311523C3.770012,415.074524,2.886223,414.014954,2.886223,412.763z M9.640129,415.751282
	c0,0.083008,0.004883,0.087891,0.087891,0.087891h0.686523c0.083008,0,0.087891-0.004883,0.087891-0.087891v-2.030273
	c0-0.083984,0.003906-0.087891,0.087891-0.087891h0.492188c0.610352,0,1.102539-0.166992,1.466797-0.448242
	c0.457031-0.356445,0.685547-0.875,0.685547-1.555664c0-0.703125-0.253906-1.217773-0.710938-1.555664
	c-0.180664-0.12793-0.382812-0.224609-0.607422-0.290039c-0.223633-0.066406-0.513672-0.09668-0.869141-0.09668H9.72802
	c-0.083008,0-0.087891,0.003906-0.087891,0.087891V415.751282z M11.143059,410.460266c0.892578,0,1.1875,0.553711,1.1875,1.186523
	c0,0.786133-0.435547,1.212891-1.1875,1.212891h-0.552734c-0.083984,0-0.087891-0.004883-0.087891-0.087891v-2.223633
	c0-0.083984,0.003906-0.087891,0.087891-0.087891H11.143059z M14.671379,415.751282c0,0.083008,0.004883,0.087891,0.087891,0.087891
	h3.322266c0.083008,0,0.087891-0.004883,0.087891-0.087891v-0.632812c0-0.083984-0.004883-0.087891-0.087891-0.087891h-2.460938
	c-0.083008,0-0.087891-0.004883-0.087891-0.087891v-1.212891c0-0.083984,0.004883-0.087891,0.087891-0.087891h2.329102
	c0.083984,0,0.087891-0.004883,0.087891-0.087891v-0.624023c0-0.083984-0.003906-0.087891-0.087891-0.087891h-2.329102
	c-0.083008,0-0.087891-0.004883-0.087891-0.087891v-2.170898c0-0.083984,0.004883-0.087891,0.087891-0.087891h2.416992
	c0.083984,0,0.087891-0.004883,0.087891-0.087891v-0.632812c0-0.083984-0.003906-0.087891-0.087891-0.087891h-3.27832
	c-0.083008,0-0.087891,0.003906-0.087891,0.087891V415.751282z M20.555168,413.211243
	c0-0.052734,0.013672-0.079102,0.035156-0.079102c0.017578,0,0.039062,0.017578,0.070312,0.052734l1.959961,2.566406
	c0.070312,0.083008,0.057617,0.087891,0.140625,0.087891h0.878906c0.052734,0,0.079102-0.004883,0.079102-0.017578
	c0,0-0.013672-0.022461-0.043945-0.070312l-1.907227-2.469727c-0.013672-0.013672-0.017578-0.022461-0.017578-0.035156
	c0-0.017578,0.013672-0.03125,0.035156-0.035156c0.949219-0.189453,1.485352-0.822266,1.485352-1.713867
	c0-0.5625-0.163086-1.050781-0.5625-1.379883c-0.34668-0.286133-0.852539-0.430664-1.520508-0.430664H19.79052
	c-0.083008,0-0.087891,0.003906-0.087891,0.087891v5.976562c0,0.083008,0.022461,0.087891,0.105469,0.087891h0.65918
	c0.083984,0,0.087891-0.004883,0.087891-0.087891V413.211243z M20.643059,412.552063
	c-0.083984,0-0.087891-0.004883-0.087891-0.087891v-1.916016c0-0.083984,0.003906-0.087891,0.087891-0.087891h0.588867
	c0.703125,0,1.142578,0.333984,1.142578,1.037109c0,0.667969-0.333984,1.054688-1.107422,1.054688H20.643059z"/>
</svg>
